<svg width="24" height="24" viewBox="0 0 24 24" fill="none" xmlns="http://www.w3.org/2000/svg">
<g clip-path="url(#clip0_19_3084)">
<path d="M13.5919 9.32581H10.4081C8.01702 9.74581 5.89874 11.1047 4.50842 13.0894C11.444 18.0928 11.9686 18.4716 11.9986 18.4931C11.9986 18.4931 11.999 18.4931 11.999 18.4936C11.9995 18.4936 11.9995 18.4936 11.9995 18.4941H12H12.0005V18.4936C12.0009 18.4936 12.0009 18.4936 12.0009 18.4931H12.0014H12.0019V18.4927C12.0347 18.4692 12.5798 18.076 19.4915 13.0894C18.104 11.1089 15.9881 9.74674 13.5919 9.32581Z" fill="#FF4949"/>
<path d="M19.4916 13.0894C12.5799 18.076 12.0347 18.4692 12.0019 18.4927V9.32581H13.5919C15.9881 9.74674 18.1041 11.1089 19.4916 13.0894Z" fill="#F30051"/>
<path d="M11.9983 18.4929C11.9979 18.4927 11.998 18.4927 11.9983 18.4929V18.4929Z" fill="black"/>
<path d="M12 18.4941C12.0003 18.4943 12.0003 18.4943 12 18.4941V18.4941Z" fill="black"/>
<path d="M11.9999 18.4941C11.9999 18.4941 11.9998 18.494 11.9997 18.4939C11.9998 18.494 11.9999 18.4941 11.9999 18.4941Z" fill="black"/>
<path d="M12 18.4941C11.9998 18.4942 11.9998 18.4943 12 18.4941V18.4941Z" fill="black"/>
<path d="M12 18.4941L12.0004 18.4939L12.0002 18.494L12 18.4941Z" fill="black"/>
<path d="M12.0005 18.4938L12.0012 18.4933L12.0006 18.4938L12.0005 18.4938Z" fill="black"/>
<path d="M8.48438 0.75H9.89062V3.5625H8.48438V0.75Z" fill="#FFE375"/>
<path d="M2.85938 6.375H5.67188V7.78125H2.85938V6.375Z" fill="#FFE375"/>
<path d="M3.76776 2.65375L4.76198 1.65953L6.87105 3.7686L5.87683 4.76282L3.76776 2.65375Z" fill="#FFE375"/>
<path d="M14.1094 0.75H15.5156V3.5625H14.1094V0.75Z" fill="#FFB725"/>
<path d="M18.3281 6.375H21.1406V7.78125H18.3281V6.375Z" fill="#FFB725"/>
<path d="M17.1257 3.77002L19.2347 1.66095L20.229 2.65517L18.1199 4.76424L17.1257 3.77002Z" fill="#FFB725"/>
<path d="M4.26562 19.0312H19.7344V23.25H4.26562V19.0312Z" fill="#FFB725"/>
<path d="M12.0019 19.0312H19.7344V23.25H12.0019V19.0312Z" fill="#FF9100"/>
<path d="M22.2727 12.9258L19.7344 19.9688H4.26564L1.72736 12.9258C1.73204 12.9235 1.71465 12.9341 3.70314 11.5781L7.52907 14.4478L10.7424 8.02173H13.2577L16.4709 14.4478L20.2969 11.5781L22.2727 12.9258Z" fill="#FFE375"/>
<path d="M22.2727 12.9258L19.7344 19.9688H12.0019V8.02173H13.2577L16.471 14.4478L20.2969 11.5781L22.2727 12.9258Z" fill="#FFB725"/>
<path d="M2.10938 13.4062C0.946266 13.4062 0 12.46 0 11.2969C0 10.1338 0.946266 9.1875 2.10938 9.1875C3.27248 9.1875 4.21875 10.1338 4.21875 11.2969C4.21875 12.46 3.27248 13.4062 2.10938 13.4062Z" fill="#FF4949"/>
<path d="M21.8906 13.4062C20.7275 13.4062 19.7812 12.46 19.7812 11.2969C19.7812 10.1338 20.7275 9.1875 21.8906 9.1875C23.0537 9.1875 24 10.1338 24 11.2969C24 12.46 23.0537 13.4062 21.8906 13.4062Z" fill="#F30051"/>
<path d="M12.0019 4.96875H12C10.837 4.96875 9.89062 5.91516 9.89062 7.07812C9.89062 8.24109 10.837 9.1875 12 9.1875H12.0019C13.1639 9.18656 14.1094 8.24062 14.1094 7.07812C14.1094 5.91563 13.1639 4.96969 12.0019 4.96875Z" fill="#FF4949"/>
<path d="M14.1094 7.07812C14.1094 8.24062 13.1639 9.18656 12.0019 9.1875V4.96875C13.1639 4.96969 14.1094 5.91563 14.1094 7.07812Z" fill="#F30051"/>
<path d="M13.4062 19.7344L12.0019 23.2453L12 23.25L10.5938 19.7344L12 16.2188L12.0019 16.2234L13.4062 19.7344Z" fill="#57D9AD"/>
<path d="M13.4063 19.7344L12.0019 23.2453V16.2234L13.4063 19.7344Z" fill="#26BFA6"/>
</g>
<defs>
<clipPath id="clip0_19_3084">
<rect width="24" height="24" fill="white"/>
</clipPath>
</defs>
</svg>
