<svg width="32" height="32" viewBox="0 0 32 32" fill="none" xmlns="http://www.w3.org/2000/svg">
<g clip-path="url(#clip0_19_3348)">
<path fill-rule="evenodd" clip-rule="evenodd" d="M23.9042 12.7575L19.0141 11.8074C18.901 11.7918 18.7964 11.7251 18.7368 11.6176L16.3126 7.24072L13.9024 11.5899C13.8471 11.7001 13.715 11.8106 13.6307 11.8036L8.72095 12.7575L12.1166 16.3981C12.2004 16.4772 12.2468 16.5936 12.2314 16.7167L11.6214 21.6808L16.1466 19.5701C16.245 19.5216 16.3639 19.5165 16.471 19.5666L21.0038 21.6808L20.395 16.7273C20.3785 16.6179 20.4102 16.5023 20.4921 16.4157L23.9042 12.7575Z" fill="#FFC017"/>
<path fill-rule="evenodd" clip-rule="evenodd" d="M11.4662 16.7977L7.71231 12.7744C7.51721 12.5652 7.61295 12.2 7.93672 12.1469L13.3183 11.1014L15.9856 6.28833C16.1355 6.0177 16.528 6.0366 16.6539 6.31431L19.3068 11.1014L24.7101 12.1505C24.8683 12.1372 25.1906 12.4959 24.8953 12.7919L21.1589 16.7977L21.8304 22.2606C21.866 22.5502 21.5682 22.7755 21.2913 22.6421L16.3125 20.3199L11.3253 22.6462C11.0622 22.7689 10.7529 22.5577 10.7964 22.2477L11.4662 16.7977ZM29.9839 11.3923L21.0237 9.65169C20.9106 9.63611 20.8059 9.56938 20.7463 9.4619L16.3125 1.4585L11.8928 9.43414C11.8375 9.54435 11.7053 9.65486 11.6211 9.64785L2.64124 11.3923L8.85216 18.0513C8.9403 18.1323 9.00105 18.2256 8.97964 18.3835L7.86394 27.4628L16.1465 23.5995C16.245 23.551 16.3638 23.5459 16.471 23.596L24.7612 27.4628L23.6467 18.3942C23.6302 18.2848 23.6619 18.1692 23.7438 18.0826L29.9839 11.3923Z" fill="#FAA21F"/>
<path fill-rule="evenodd" clip-rule="evenodd" d="M8.21445 18.4649L2.28198 12.1045V14.8563L7.91563 20.8963L8.21445 18.4649Z" fill="#F88520"/>
<path fill-rule="evenodd" clip-rule="evenodd" d="M16.3125 24.3496L7.78442 28.3274V31.3492L16.1465 27.4489C16.245 27.4004 16.3638 27.3952 16.4709 27.4454L24.8406 31.3492V28.3274L16.3125 24.3496Z" fill="#F88520"/>
<path fill-rule="evenodd" clip-rule="evenodd" d="M24.4106 18.4649L24.7095 20.8965L30.3432 14.8563V12.1045L24.4106 18.4649Z" fill="#F88520"/>
<path d="M16.3413 6.00198L18.9942 10.7891L24.3975 11.8381C24.5558 11.8249 24.878 12.1835 24.5827 12.4796L20.8463 16.4854L21.5176 21.9482C21.5532 22.2378 21.2556 22.4632 20.9787 22.3297L16 20.0075L11.0127 22.3337C10.7496 22.4564 10.4403 22.2454 10.4838 21.9354L11.1536 16.4854L7.40033 12.4615C7.20523 12.2523 7.30038 11.8877 7.62415 11.8346L13.0057 10.7891L15.673 5.976C15.823 5.70538 16.2154 5.72427 16.3413 6.00198ZM18.4252 11.3046L16 6.92825L13.5898 11.2774C13.5345 11.3876 13.4024 11.4981 13.3181 11.4911L8.40836 12.445L11.804 16.0856C11.8878 16.1647 11.9342 16.2811 11.919 16.4042L11.3088 21.3683L15.834 19.2577C15.9325 19.2092 16.0513 19.204 16.1585 19.254L20.6912 21.3683L20.0824 16.4148C20.0659 16.3054 20.0976 16.1898 20.1789 16.1026L23.5916 12.445L18.7016 11.4949C18.5885 11.4794 18.4848 11.412 18.4252 11.3046Z" fill="black"/>
<path d="M16.3414 0.219786L21.0039 8.63339L30.4772 10.473C30.6355 10.4598 30.9578 10.8184 30.6624 11.1145L24.0981 18.1523L25.2751 27.7302C25.3107 28.0198 25.0131 28.2452 24.7362 28.1117L16 24.0369L7.25534 28.1157C6.99225 28.2383 6.68294 28.0273 6.7265 27.7173L7.90192 18.1523L1.32072 11.0963C1.12547 10.887 1.22114 10.5223 1.54454 10.4695L10.9962 8.63337L15.6731 0.193778C15.823 -0.0768442 16.2154 -0.0579214 16.3414 0.219786ZM20.4349 9.14889L16 1.14608L11.5803 9.12172C11.525 9.23193 11.3928 9.34244 11.3086 9.33543L2.32872 11.0799L8.55234 17.7525C8.63613 17.8316 8.68248 17.9481 8.66735 18.0711L7.55143 27.1503L15.834 23.2871C15.9325 23.2386 16.0513 23.2334 16.1585 23.2834L24.4486 27.1503L23.3342 18.0817C23.3177 17.9723 23.3494 17.8567 23.4307 17.7696L29.6713 11.0799L20.7112 9.33927C20.5981 9.32369 20.4944 9.25637 20.4349 9.14889Z" fill="black"/>
<path d="M30.7807 10.8412C30.7807 10.3475 30.0307 10.3475 30.0307 10.8412V14.5438L23.849 21.1715C23.5135 21.5316 24.0608 22.0421 24.3969 21.6813L30.6629 14.9632C30.7354 14.8948 30.7807 14.7979 30.7807 14.6904L30.7807 10.8412ZM25.2782 27.776C25.2782 27.2823 24.5282 27.2823 24.5282 27.776V31.0367L16.1585 27.1328C16.0513 27.0828 15.9325 27.0879 15.8341 27.1364L7.47197 31.0367V27.776C7.47197 27.2823 6.72197 27.2823 6.72197 27.776C6.72197 28.2533 6.67384 31.6051 6.75711 31.7837C6.84458 31.9714 7.06781 32.0526 7.25546 31.9651L16.0001 27.8862L24.7351 31.9604C24.9952 32.0863 25.2782 31.8966 25.2782 31.6252L25.2782 27.776ZM8.66725 18.0708C8.7269 17.5809 7.9831 17.4902 7.92316 17.98L7.60315 20.584L1.96949 14.5438V10.8412C1.96949 10.3475 1.21948 10.3475 1.21948 10.8412L1.21956 14.6904C1.21956 14.7821 1.25285 14.8739 1.32025 14.9462L7.58713 21.664C7.872 21.9901 8.27446 21.6659 8.24929 21.4719L8.66725 18.0708Z" fill="black"/>
</g>
<defs>
<clipPath id="clip0_19_3348">
<rect width="32" height="32" fill="white"/>
</clipPath>
</defs>
</svg>
