<svg width="44" height="44" viewBox="0 0 44 44" fill="none" xmlns="http://www.w3.org/2000/svg">
<g clip-path="url(#clip0_19_3935)" filter="url(#filter0_d_19_3935)">
<path d="M25.9061 39.5682V24.5342H28.9958C29.6614 24.5342 30.0571 23.7995 29.6929 23.2405L22.6971 12.4958C22.3706 11.9871 21.6233 11.9871 21.2967 12.4958L14.301 23.2405C13.9368 23.7932 14.3387 24.5342 14.9981 24.5342H18.0878V39.5682C18.0878 40.0078 18.4457 40.3658 18.8853 40.3658H25.1026C25.5422 40.3658 25.9001 40.0078 25.9001 39.5682H25.9061Z" fill="#44B52D"/>
<path d="M2.53223 20.9108C2.53223 29.2818 7.84513 36.4347 15.2681 39.179V32.9742C11.0415 30.6067 8.17791 26.0914 8.17791 20.9104C8.17791 13.2929 14.3762 7.09458 21.9937 7.09458C29.6112 7.09458 35.8095 13.2929 35.8095 20.9104C35.8095 26.085 32.9459 30.6065 28.7193 32.9742V39.179C36.1483 36.4347 41.4552 29.2818 41.4552 20.9108C41.4677 10.172 32.7324 1.44287 22.0001 1.44287C11.2678 1.44287 2.53223 10.172 2.53223 20.9108Z" fill="#44B52D"/>
</g>
<defs>
<filter id="filter0_d_19_3935" x="0" y="0" width="44" height="44" filterUnits="userSpaceOnUse" color-interpolation-filters="sRGB">
<feFlood flood-opacity="0" result="BackgroundImageFix"/>
<feColorMatrix in="SourceAlpha" type="matrix" values="0 0 0 0 0 0 0 0 0 0 0 0 0 0 0 0 0 0 127 0" result="hardAlpha"/>
<feOffset dy="1"/>
<feGaussianBlur stdDeviation="1"/>
<feColorMatrix type="matrix" values="0 0 0 0 0 0 0 0 0 0 0 0 0 0 0 0 0 0 0.3 0"/>
<feBlend mode="normal" in2="BackgroundImageFix" result="effect1_dropShadow_19_3935"/>
<feBlend mode="normal" in="SourceGraphic" in2="effect1_dropShadow_19_3935" result="shape"/>
</filter>
<clipPath id="clip0_19_3935">
<rect width="40" height="40" fill="white" transform="translate(2 1)"/>
</clipPath>
</defs>
</svg>
